<svg enable-background="new 0 0 154.9 46.1" viewBox="0 0 154.9 46.1" xmlns="http://www.w3.org/2000/svg"><g fill="#fff"><path d="m58.9 38.2v-28.2h17.9v5.2h-11.2v6.1h8.4v5.2h-8.4v11.7z"/><path d="m86.2 15.8v4.2c1.6-2.9 3.7-4.4 6.3-4.4v7h-1.6c-1.5 0-2.7.4-3.5 1.1-.8.8-1.2 2.1-1.2 3.9v10.6h-6.7v-22.4z"/><path d="m95.9 35.3c-2.2-2.1-3.3-4.9-3.3-8.4s1.1-6.2 3.3-8.3 4.9-3.1 8.1-3.1 5.9 1 8.1 3.1 3.3 4.8 3.3 8.3-1.1 6.2-3.3 8.4-4.9 3.2-8.1 3.2-5.9-1.1-8.1-3.2zm11.4-4.1c.9-1 1.3-2.4 1.3-4.2s-.5-3.2-1.4-4.2-2-1.4-3.3-1.4-2.3.5-3.2 1.4c-.9 1-1.4 2.3-1.4 4.2s.5 3.2 1.4 4.2 2 1.4 3.3 1.4 2.4-.5 3.3-1.4z"/><path d="m124.5 15.8v3.3c1.4-2.4 3.6-3.5 6.6-3.5 2.5 0 4.5.9 6.1 2.6s2.3 4 2.3 7v13.1h-6.7v-12.3c0-1.4-.4-2.6-1.1-3.4s-1.8-1.2-3.1-1.2-2.3.4-3.1 1.2c-.7.8-1.1 1.9-1.1 3.4v12.2h-6.7v-22.4z"/><path d="m152.5 32.4h2.4v5.8h-3.4c-2.5 0-4.4-.6-5.7-1.7s-2-3-2-5.7v-9.3h-2v-5.7h2v-5.5h6.7v5.5h4.4v5.7h-4.4v9.3c0 1 .7 1.6 2 1.6z"/></g><path d="m23 41.1c-9.9 0-18-8-18-18 0-9.9 8-18 18-18h11.3c3.7 0 6.6 3 6.6 6.6v11.4c.1 9.9-8 18-17.9 18z" fill="#e1e4ea" opacity=".65"/><path d="m28 36c-9.9 0-18-8-18-18 0-9.9 8-18 18-18h11.3c3.7.1 6.7 3.1 6.7 6.7v11.4c0 9.9-8 17.9-18 17.9z" fill="#fff" opacity=".5"/><path d="m18 46.1c-10 0-18-8-18-18 0-9.9 8-18 18-18h11.3c3.7 0 6.6 3 6.6 6.6v11.4c0 10-8 18-17.9 18z" fill="#fff" opacity=".7"/><path d="m17.4 34.1v-15.7h10.2v2.9h-6.4v3.4h4.8v2.9h-4.8v6.5z" fill="#377dff"/></svg>